# xmcd
#
# Track frame offsets:
# 182
# 20937
# 41890
# 65030
# 75615
# 88170
# 109835
# 122610
# 133232
# 144327
#
# Disc length: 2626 seconds
#
# Revision: 0
# Processed by: cddbd v1.4PL0 Copyright (c) Steve Scherf et al.
# Submitted via: MacMP3 Pro 5.0 (http://mp3.act2.co.jp/)
#
DISCID=940a400a
DTITLE=Smokey Johnson - IT AIN'T MY FAULT
DYEAR=1900
DGENRE=
TTITLE0=It Ain't My Fault(Parts 1&2)
TTITLE1=I Can't Help It(Parts 1&2)
TTITLE2=Did You Heard What I Saw(Parts 1&2)
TTITLE3=The Funkie Moon
TTITLE4=Tippin' Lightly
TTITLE5=Whip It(Parts 1&2)
TTITLE6=Dirty Red
TTITLE7=Smokestack
TTITLE8=Bullseye
TTITLE9=It Ain't My Fault (Live)
EXTD=
EXTT0=
EXTT1=
EXTT2=
EXTT3=
EXTT4=
EXTT5=
EXTT6=
EXTT7=
EXTT8=
EXTT9=
PLAYORDER=
